# xmcd
#
# Track frame offsets: 
#        150
#        25925
#        46577
#        68067
#        91625
#        111992
#        137195
#        159645
#        176742
#        193800
#        211500
#
# Disc length: 3120 seconds
#
# Revision: 18
# Processed by: cddbd v1.5.2PL0 Copyright (c) Steve Scherf et al.
# Submitted via: ExactAudioCopyFreeDBPlugin 1.0
#
DISCID=8e0c2e0b
DTITLE=Various Artist - Days Of Thunder - Soundtrack
DYEAR=1990
DGENRE=Soundtrack
TTITLE0=David Coverdale - The Last Note Of Freedom
TTITLE1=John Waite - Deal For Life
TTITLE2=Tina Turner - Break Through The Barrier
TTITLE3=Chicago - Hearts In Trouble
TTITLE4=Cher - Trail Of Broken Hearts
TTITLE5=Guns N' Roses - Knockin' On Heaven's Door
TTITLE6=Elton John - You Gotta Love Someone
TTITLE7=Maria McKee - Show Me Heaven
TTITLE8=Apollo Smile - Thunder Box
TTITLE9=Joan Jett and The Blackhearts - Long Live The Night
TTITLE10=Terry Reid - Gimme Some Lovin'
EXTD=For those who hates to have Artists like this John, Elton YEAR: 1
EXTD=990
EXTT0=
EXTT1=
EXTT2=
EXTT3=
EXTT4=
EXTT5=
EXTT6=
EXTT7=
EXTT8=
EXTT9=
EXTT10=
PLAYORDER=
